<?xml version="1.0" encoding="utf-8"?>
<!-- Generator: Adobe Illustrator 27.3.1, SVG Export Plug-In . SVG Version: 6.00 Build 0)  -->
<svg version="1.1" id="Layer_1" xmlns="http://www.w3.org/2000/svg" xmlns:xlink="http://www.w3.org/1999/xlink" x="0px" y="0px"
	 viewBox="0 0 84 84" style="enable-background:new 0 0 84 84;" xml:space="preserve">
<style type="text/css">
	.st0{fill:#FFFFFF;}
	.st1{fill:none;stroke:#F48E76;stroke-width:4;}
</style>
<g>
	<g transform="translate(9.097899, 42.970765)">
		<g>
			<path class="st0" d="M21.4-14.2h-6.8v7H21v7.4h-6.4v8.4H22v7.7H4.8v-38.4h16.6V-14.2z"/>
		</g>
	</g>
</g>
<g>
	<g transform="translate(24.215727, 42.970765)">
		<g>
			<path class="st0" d="M33.4,16.5h-9.8l-0.5-6.8h-3.6l-0.5,6.8H9.2L14-21.9h14.2L33.4,16.5z M19.5,3H23l-1.7-18h-0.1L19.5,3z"/>
		</g>
	</g>
</g>
<g>
	<g transform="translate(44.10085, 42.970765)">
		<g>
			<path class="st0" d="M26.6,16.5h-9.8v-38.4h9.8V16.5z"/>
		</g>
	</g>
</g>
<g>
	<rect x="7.3" y="16.6" class="st1" width="69.9" height="47.3"/>
	<path class="st1" d="M78.6,67.6H5.4c-1,0-1.8-0.8-1.8-1.8V14.5c0-1,0.8-1.8,1.8-1.8h73.2c1,0,1.8,0.8,1.8,1.8v51.3
		C80.4,66.8,79.6,67.6,78.6,67.6z"/>
</g>
</svg>
