<?xml version="1.0" encoding="utf-8"?>
<!-- Generator: Adobe Illustrator 27.3.1, SVG Export Plug-In . SVG Version: 6.00 Build 0)  -->
<svg version="1.1" id="Layer_1" xmlns="http://www.w3.org/2000/svg" xmlns:xlink="http://www.w3.org/1999/xlink" x="0px" y="0px"
	 viewBox="0 0 84 84" style="enable-background:new 0 0 84 84;" xml:space="preserve">
<style type="text/css">
	.st0{fill:#FBFEFB;}
</style>
<g>
	<g>
		<path class="st0" d="M74.1,17L43.5,2.6c-1-0.5-2.2-0.5-3.3,0L9.7,17c-1.3,0.6-2.2,2-2.2,3.5c0,1.5,0.9,2.8,2.2,3.5l30.6,14.3
			c0.5,0.2,1.1,0.4,1.6,0.4c0.6,0,1.1-0.1,1.6-0.4l30.6-14.3c1.3-0.6,2.2-2,2.2-3.5C76.3,19,75.4,17.6,74.1,17z M41.9,30.6
			L20.3,20.5l21.5-10.1l21.5,10.1L41.9,30.6z"/>
	</g>
</g>
<g>
	<g>
		<path class="st0" d="M75.9,33.2c-0.9-1.9-3.2-2.7-5.1-1.8L41.9,44.9L12.9,31.3c-1.9-0.9-4.2-0.1-5.1,1.8c-0.9,1.9-0.1,4.2,1.8,5.1
			l30.6,14.3c0.5,0.2,1.1,0.4,1.6,0.4c0.6,0,1.1-0.1,1.6-0.4l30.6-14.3C76,37.4,76.8,35.1,75.9,33.2z"/>
	</g>
</g>
<g>
	<g>
		<path class="st0" d="M75.9,47.5c-0.9-1.9-3.2-2.7-5.1-1.8L41.9,59.3L12.9,45.7c-1.9-0.9-4.2-0.1-5.1,1.8c-0.9,1.9-0.1,4.2,1.8,5.1
			L40.2,67c0.5,0.2,1.1,0.4,1.6,0.4c0.6,0,1.1-0.1,1.6-0.4l30.6-14.4C76,51.7,76.8,49.5,75.9,47.5z"/>
	</g>
</g>
<g>
	<g>
		<path class="st0" d="M75.9,61.9C75,60,72.7,59.1,70.8,60L41.9,73.6L12.9,60C11,59.1,8.7,60,7.8,61.9c-0.9,1.9-0.1,4.2,1.8,5.1
			l30.6,14.3c0.5,0.2,1.1,0.4,1.6,0.4c0.6,0,1.1-0.1,1.6-0.4L74.1,67C76,66.1,76.8,63.8,75.9,61.9z"/>
	</g>
</g>
</svg>
