<?xml version="1.0" encoding="UTF-8"?>
<svg id="Layer_1" data-name="Layer 1" xmlns="http://www.w3.org/2000/svg" version="1.1" viewBox="0 0 64 64">
  <defs>
    <style>
      .cls-1 {
        fill: #5b90ef;
      }

      .cls-1, .cls-2, .cls-3 {
        stroke-width: 0px;
      }

      .cls-2 {
        fill: #d1f8fd;
      }

      .cls-2, .cls-3 {
        fill-rule: evenodd;
      }

      .cls-3 {
        fill: #5380e5;
      }
    </style>
  </defs>
  <g id="brown">
    <path class="cls-3" d="M49.5,12.1c.3,1.2,1.2,2.2,2.5,2.5v34.9c-1.2.3-2.2,1.2-2.5,2.5H14.5c-.3-1.2-1.2-2.2-2.5-2.5V14.5c1.2-.3,2.2-1.2,2.5-2.5h34.9Z"/>
  </g>
  <g id="blue">
    <path class="cls-2" d="M9.5,14.1c-1.5-1-2-3-1-4.6s3-2,4.6-1c.4.3.8.6,1,1h35.8c1-1.5,3-2,4.6-1s2,3,1,4.6c-.3.4-.6.8-1,1v35.8c1.5,1,2,3,1,4.6s-3,2-4.6,1c-.4-.3-.8-.6-1-1H14.1c-1,1.5-3,2-4.6,1s-2-3-1-4.6c.3-.4.6-.8,1-1,0,0,0-35.8,0-35.8ZM49.5,12.1H14.5c-.3,1.2-1.2,2.2-2.5,2.5v34.9c1.2.3,2.2,1.2,2.5,2.5h34.9c.3-1.2,1.2-2.2,2.5-2.5V14.5c-1.2-.3-2.2-1.2-2.5-2.5Z"/>
  </g>
  <g>
    <path class="cls-1" d="M48.3,42.3c-1.6,0-3.1-.8-4-2.2,0,0,0,0,0,0s0,0,0,0c-.9,1.4-2.4,2.2-4,2.2s-3.1-.8-4-2.2c0,0,0,0,0,0s0,0,0,0c-.9,1.4-2.4,2.2-4,2.2s-3.1-.8-4-2.2c0,0,0,0,0,0s0,0,0,0c-.9,1.4-2.4,2.2-4,2.2s-3.1-.8-4-2.2c0,0,0,0,0,0s0,0,0,0c-.9,1.4-2.4,2.2-4,2.2v-1c1.3,0,2.5-.7,3.2-1.7.2-.3.5-.5.9-.5.4,0,.7.2.9.5.7,1.1,1.9,1.7,3.2,1.7s2.5-.7,3.2-1.7c.2-.3.5-.5.9-.5h0c.4,0,.7.2.9.5.7,1.1,1.9,1.7,3.2,1.7s2.5-.7,3.2-1.7c.2-.3.5-.5.9-.5h0c.4,0,.7.2.9.5.7,1.1,1.9,1.7,3.2,1.7s2.5-.7,3.2-1.7c.2-.3.5-.5.9-.5.4,0,.7.2.9.5.7,1.1,1.9,1.7,3.2,1.7v1Z"/>
    <path class="cls-1" d="M48.3,48.2c-1.6,0-3.1-.8-4-2.2,0,0,0,0,0,0s0,0,0,0c-.9,1.4-2.4,2.2-4,2.2s-3.1-.8-4-2.2c0,0,0,0,0,0s0,0,0,0c-.9,1.4-2.4,2.2-4,2.2s-3.1-.8-4-2.2c0,0,0,0,0,0s0,0,0,0c-.9,1.4-2.4,2.2-4,2.2s-3.1-.8-4-2.2c0,0,0,0,0,0s0,0,0,0c-.9,1.4-2.4,2.2-4,2.2v-1c1.3,0,2.5-.7,3.2-1.7.2-.3.5-.5.9-.5.4,0,.7.2.9.5.7,1.1,1.9,1.7,3.2,1.7s2.5-.7,3.2-1.7c.2-.3.5-.5.9-.5h0c.4,0,.7.2.9.5.7,1.1,1.9,1.7,3.2,1.7s2.5-.7,3.2-1.7c.2-.3.5-.5.9-.5h0c.4,0,.7.2.9.5.7,1.1,1.9,1.7,3.2,1.7s2.5-.7,3.2-1.7c.2-.3.5-.5.9-.5.4,0,.7.2.9.5.7,1.1,1.9,1.7,3.2,1.7v1Z"/>
    <path class="cls-1" d="M48.3,30.7c-1.6,0-3.1-.8-4-2.2,0,0,0,0,0,0s0,0,0,0c-.9,1.4-2.4,2.2-4,2.2s-3.1-.8-4-2.2c0,0,0,0,0,0s0,0,0,0c-.9,1.4-2.4,2.2-4,2.2s-3.1-.8-4-2.2c0,0,0,0,0,0s0,0,0,0c-.9,1.4-2.4,2.2-4,2.2s-3.1-.8-4-2.2c0,0,0,0,0,0s0,0,0,0c-.9,1.4-2.4,2.2-4,2.2v-1c1.3,0,2.5-.7,3.2-1.7.2-.3.5-.5.9-.5.4,0,.7.2.9.5.7,1.1,1.9,1.7,3.2,1.7s2.5-.7,3.2-1.7c.2-.3.5-.5.9-.5h0c.4,0,.7.2.9.5.7,1.1,1.9,1.7,3.2,1.7s2.5-.7,3.2-1.7c.2-.3.5-.5.9-.5h0c.4,0,.7.2.9.5.7,1.1,1.9,1.7,3.2,1.7s2.5-.7,3.2-1.7c.2-.3.5-.5.9-.5.4,0,.7.2.9.5.7,1.1,1.9,1.7,3.2,1.7v1Z"/>
    <path class="cls-1" d="M48.3,36.5c-1.6,0-3.1-.8-4-2.2,0,0,0,0,0,0s0,0,0,0c-.9,1.4-2.4,2.2-4,2.2s-3.1-.8-4-2.2c0,0,0,0,0,0s0,0,0,0c-.9,1.4-2.4,2.2-4,2.2s-3.1-.8-4-2.2c0,0,0,0,0,0s0,0,0,0c-.9,1.4-2.4,2.2-4,2.2s-3.1-.8-4-2.2c0,0,0,0,0,0s0,0,0,0c-.9,1.4-2.4,2.2-4,2.2v-1c1.3,0,2.5-.7,3.2-1.7.2-.3.5-.5.9-.5.4,0,.7.2.9.5.7,1.1,1.9,1.7,3.2,1.7s2.5-.7,3.2-1.7c.2-.3.5-.5.9-.5h0c.4,0,.7.2.9.5.7,1.1,1.9,1.7,3.2,1.7s2.5-.7,3.2-1.7c.2-.3.5-.5.9-.5h0c.4,0,.7.2.9.5.7,1.1,1.9,1.7,3.2,1.7s2.5-.7,3.2-1.7c.2-.3.5-.5.9-.5.4,0,.7.2.9.5.7,1.1,1.9,1.7,3.2,1.7v1Z"/>
    <path class="cls-1" d="M48.3,19.1c-1.6,0-3.1-.8-4-2.2,0,0,0,0,0,0s0,0,0,0c-.9,1.4-2.4,2.2-4,2.2s-3.1-.8-4-2.2c0,0,0,0,0,0s0,0,0,0c-.9,1.4-2.4,2.2-4,2.2s-3.1-.8-4-2.2c0,0,0,0,0,0s0,0,0,0c-.9,1.4-2.4,2.2-4,2.2s-3.1-.8-4-2.2c0,0,0,0,0,0s0,0,0,0c-.9,1.4-2.4,2.2-4,2.2v-1c1.3,0,2.5-.7,3.2-1.7.2-.3.5-.5.9-.5.4,0,.7.2.9.5.7,1.1,1.9,1.7,3.2,1.7s2.5-.7,3.2-1.7c.2-.3.5-.5.9-.5h0c.4,0,.7.2.9.5.7,1.1,1.9,1.7,3.2,1.7s2.5-.7,3.2-1.7c.2-.3.5-.5.9-.5h0c.4,0,.7.2.9.5.7,1.1,1.9,1.7,3.2,1.7s2.5-.7,3.2-1.7c.2-.3.5-.5.9-.5.4,0,.7.2.9.5.7,1.1,1.9,1.7,3.2,1.7v1Z"/>
    <path class="cls-1" d="M48.3,24.9c-1.6,0-3.1-.8-4-2.2,0,0,0,0,0,0s0,0,0,0c-.9,1.4-2.4,2.2-4,2.2s-3.1-.8-4-2.2c0,0,0,0,0,0s0,0,0,0c-.9,1.4-2.4,2.2-4,2.2s-3.1-.8-4-2.2c0,0,0,0,0,0s0,0,0,0c-.9,1.4-2.4,2.2-4,2.2s-3.1-.8-4-2.2c0,0,0,0,0,0s0,0,0,0c-.9,1.4-2.4,2.2-4,2.2v-1c1.3,0,2.5-.7,3.2-1.7.2-.3.5-.5.9-.5.4,0,.7.2.9.5.7,1.1,1.9,1.7,3.2,1.7s2.5-.7,3.2-1.7c.2-.3.5-.5.9-.5h0c.4,0,.7.2.9.5.7,1.1,1.9,1.7,3.2,1.7s2.5-.7,3.2-1.7c.2-.3.5-.5.9-.5h0c.4,0,.7.2.9.5.7,1.1,1.9,1.7,3.2,1.7s2.5-.7,3.2-1.7c.2-.3.5-.5.9-.5.4,0,.7.2.9.5.7,1.1,1.9,1.7,3.2,1.7v1Z"/>
  </g>
</svg>