<svg xmlns="http://www.w3.org/2000/svg" viewBox="0 0 104.66 122.88"><defs><style>.a{fill:#2881ab;}.b{fill:#56b8e7;fill-rule:evenodd;}.c{fill:#fff;}</style></defs><title>river</title><path class="a" d="M81.93,122.88,3,122.81a2.76,2.76,0,0,1-2.33-1,2.81,2.81,0,0,1,.35-4,223,223,0,0,0,18.37-17.18,93.15,93.15,0,0,0,11.5-14.46c3.72-6.12,4.42-10,2.94-12.89-1.62-3.21-5.89-6-11.72-9.61a14.88,14.88,0,0,1-6.87-8.64,20,20,0,0,1,.17-10.62c1-4,4.58-10.41,9.53-17.85C30.19,18.7,37,9.58,44,1.13A2.82,2.82,0,0,1,46.28,0H68.93a3,3,0,0,1,1.19.26A2.82,2.82,0,0,1,71.47,4,101.73,101.73,0,0,1,66,13.56c-3.85,6.22-8,12.94-8.25,17.81-.34,7,8.63,9.33,17.41,11.59,4.65,1.21,9.26,2.4,12.89,4.29a38.91,38.91,0,0,1,5.59,3.5A29.68,29.68,0,0,1,98.23,55c8.44,9.66,7.57,22.47,3.14,35-4.22,11.94-11.7,23.59-17.11,31.66a2.81,2.81,0,0,1-2.33,1.24Z"/><path class="b" d="M2.81,120l79.12.07c10.64-15.87,29.41-45.81,14.19-63.22a31.65,31.65,0,0,0-9.38-7.12c-10.8-5.61-32.47-5-31.81-18.5.42-8.44,10.12-20.16,14-28.42H46.28C32.9,19,20.05,37.57,18.12,45.14c-1.68,6.54-.66,12.43,5.44,16.17C36,69,41.89,73.51,33.28,87.67,25.79,100,10,114,2.81,120Z"/><path class="c" d="M82.23,60.49a1.8,1.8,0,1,1,1.71-3.16C89.25,60.19,92.45,64,93.27,69c.79,4.77-.73,10.45-4.84,17.13a1.8,1.8,0,1,1-3.07-1.89c3.63-5.91,5-10.76,4.36-14.66-.62-3.74-3.19-6.73-7.49-9.05Z"/><path class="c" d="M47.76,76.46a1.8,1.8,0,1,1,3.46-1c1.57,5.69.14,11.73-3.63,18.28-3.62,6.28-9.42,13.06-16.79,20.46a1.8,1.8,0,0,1-2.55-2.54C35.43,104.5,41,98,44.48,92c3.29-5.71,4.57-10.86,3.28-15.53Z"/><path class="c" d="M34.51,28.32A1.8,1.8,0,1,1,36.87,31c-.21.18-.39.35-.54.5a15.41,15.41,0,0,0-3.84,6.65c-.61,2.34-.48,4.73,1.06,6.49l.29.3a1.8,1.8,0,0,1-2.55,2.55c-.12-.12-.26-.28-.44-.48-2.45-2.81-2.73-6.38-1.84-9.78A19.28,19.28,0,0,1,33.79,29c.27-.26.51-.49.72-.67Z"/></svg>